<svg version="1" xmlns="http://www.w3.org/2000/svg" width="933.333" height="933.333" viewBox="0 0 700.000000 700.000000"><path d="M327.9.4c-.2.2-4.2.6-8.9 1s-9.6.8-11 1.1c-1.4.3-4.4.7-6.5.9-5.1.6-10.7 1.4-17 2.7-2.7.5-5.9 1.1-7 1.3-26.1 5.1-62.9 18.2-88 31.5-23.2 12.3-35.4 20.1-53.9 34.5-68 53.1-112.7 125.9-129.5 211.1-2.3 12.1-2.8 15.5-5 36-.9 8.6-.7 55.3.3 62 .8 5.5 1.5 11 2.1 17.2 1.9 18.9 11.1 53.7 20.7 78.2C46 533.5 80.5 580.6 129 621.4c6.5 5.4 31.4 23.6 32.3 23.6.2 0 5.3 3 11.3 6.6 37 22.2 86.4 39.6 127.9 44.9 2.8.4 6.1.9 7.5 1.1 16.9 2.6 65.6 2.5 85-.2 11.3-1.6 29.7-4.9 37-6.6 118.2-27.9 214.7-116.3 252.3-231.3 7.3-22.2 13.5-50.1 15.2-68 .4-3.9.9-8.4 1.2-10 .9-5.7 1.1-51 .3-59.7-1.5-14.8-2.3-21.1-4-30.8-.6-3.6-1.3-7.9-1.6-9.5-.3-1.7-2.1-9.1-3.9-16.5-13.5-54.7-41.2-106.6-79.3-148.9-7.8-8.7-25.7-26.3-32.2-31.6-2.5-2.1-6.4-5.4-8.8-7.4-7.6-6.3-27.7-20.4-38.4-26.8-38.3-23-83.2-39.5-124.8-45.8-2.5-.4-5.4-.9-6.5-1.1-1-.2-4.9-.6-8.5-1-3.6-.3-7.8-.8-9.5-1.1-3.7-.6-53-1.5-53.6-.9zm47.5 7.1c5 .3 10.5.8 12.1 1 1.7.3 6.6.9 11 1.5 50.7 6.6 105.3 28.2 148 58.4 5.5 3.9 10.7 7.6 11.5 8.3.8.6 5.3 4.2 10 7.9 7.7 6.1 34.9 32.6 42.5 41.4 22.2 25.6 45.4 63.7 58 95.5 6.7 16.8 16.1 47.9 18 59.7.3 1.8 1 5.5 1.5 8.3.5 2.7 1.2 7.2 1.6 10 .3 2.7.8 5.9 1 7 .2 1.1.6 4.9 1 8.5.3 3.6.7 8.5.9 11 .6 7 .6 39.6 0 48.5-6.4 89.8-48.7 174.4-117 234.2-33.8 29.5-76.6 53.9-118.9 67.7-10 3.2-37.7 10.3-43.6 11.1-2.5.3-5.2.8-6 1-2.4.7-24.8 3.4-33 4-8.9.7-39 .7-47.5 0-9.6-.7-25.2-2.4-27.5-3-.8-.2-3.5-.7-6-1-18.7-2.6-48.8-11.1-70.9-20-44.9-18.2-80.6-41.9-115.1-76.5-38.6-38.5-65.9-82.6-82.8-133.5-5.7-17.1-11.8-42.2-13.7-56-.2-2.2-.9-7.4-1.5-11.5-3.6-26-3-60.5 1.6-93.5 2.8-20.2 12.4-56.1 19-71.2.8-1.7 1.4-3.4 1.4-3.7 0-1.9 14.4-31.8 20.2-42 16.1-28.1 32.8-49.8 57.2-74.1C140 75 174 52 215.5 33.9c21.2-9.3 58.3-20.2 76.3-22.4 2.6-.4 5.4-.8 6.2-1 .8-.3 4.4-.7 8-1.1 3.6-.3 6.8-.8 7.1-1 .3-.1 6.4-.6 13.5-1s13-.7 13.1-.8c.5-.4 27.2.3 35.7.9z"/><path d="M344.7 51.6c-.1.1-6.2.5-13.5.8-7.3.4-13.8.9-14.5 1.1-.6.2-3.6.6-6.5.9-20.2 2.2-47.9 9.4-70.2 18.3C156.2 105.9 90.5 177.2 64.7 263c-3.4 11-8 30.6-9.1 38-3 21.2-3.7 30.5-3.7 49 0 19.4.4 24.2 3.6 47.8 5.1 36.2 22.4 81 44.2 114.2 13.6 20.8 21.1 29.8 40.3 49.1 32 32.1 66.9 54.3 110.5 70.1 16 5.8 43.7 12.5 58.8 14.2 2.6.4 6.7.9 9.2 1.2 10.2 1.3 42.7 1.9 52 .9 2.2-.2 6.9-.7 10.5-1.1 3.6-.3 8.1-.8 10-1 1.9-.2 4.6-.6 6-.9 1.4-.3 4.3-.7 6.5-1.1 2.2-.3 4.8-.7 5.7-1 1-.3 3-.8 4.5-1 1.5-.3 7-1.6 12.2-3C516.2 615 592.1 547.7 627.2 460c2.9-7.3 7.6-20.9 8.3-24 .2-.8.8-2.7 1.3-4.1 1.5-3.7 7-29.4 7.8-35.9.3-3 .8-5.8 1-6.1.2-.3.6-4.4.9-9 .4-4.6.8-9.5 1.1-10.9.5-3.1.5-33.8 0-40.6-.5-6.4-1.6-16.2-2.1-19.4-.2-1.4-.7-4.5-1-7-.3-2.5-.8-5.2-1-6-.2-.8-.6-3.1-.9-5.1-.3-1.9-2.1-9.6-4-17-19.8-76.2-69.2-141.7-137.7-182.4-8.7-5.1-34.6-17.4-45.4-21.5-27.2-10.3-58.8-17.1-86.2-18.5-13.9-.8-24.3-1.1-24.6-.9zm32.8 7.8c1.7.2 5.5.8 8.5 1.1 8.3 1.1 8.8 1.1 18.6 2.9 41.6 7.4 85.3 26.8 120.6 53.4 55.1 41.6 92.2 98.7 108.8 167.2 1.6 6.5 3.3 16.3 5.5 30.5 2.4 16.4 2.4 52.5 0 70.5-.2 1.9-.7 5.5-1 8-3.8 29.5-16.9 68.2-32.6 96.6-47.2 85.2-130.7 140.6-226.9 150.5-17.3 1.7-51.9 1.5-64-.5-1.4-.3-4.7-.7-7.5-1.1-12.5-1.5-35.1-6.9-50.2-12-17.9-6-43.1-17.5-55.1-25.1-2.9-1.9-5.5-3.4-5.8-3.4-.3 0-4.9-3-10.2-6.7-41.2-28.5-74.2-66-96.3-109.5-17.4-34.3-27.1-68.8-30.8-109.3-.8-8.7-.6-43.1.2-48 .3-1.7.8-6.2 1.2-10 .3-3.9.8-7.7 1-8.5.2-.8.6-3.3 1-5.5 1.1-7.5 1.6-10 4.5-21.6 10.7-42.2 30.2-80.8 58.5-115.3 7.9-9.6 26.4-28.2 37.1-37.3 19.6-16.6 44.8-32.1 72.4-44.5 15.3-7 45.4-16.1 60.5-18.4 2.8-.5 5.2-.9 5.5-.9.3-.1 2.8-.5 5.5-.9 2.8-.4 6.1-1 7.5-1.2 1.4-.2 6.6-.7 11.5-1 5-.4 9.1-.8 9.3-.9.6-.5 39.6.3 42.7.9z"/><path d="M347.5 75.2c-8.7 4.8-27.8 18.5-36 25.8-43.1 38.4-71.7 90.9-80 147-1 7.2-1.5 11.8-2.1 23-.4 6.3-1 11.6-1.4 11.8-2.9 1.1-20.3 13.3-29 20.2-43 34.4-74.4 85.7-85.4 140-2.8 13.8-4.4 28.8-4.2 40l.1 8.4 6.5 3.8c19.1 11.1 53.8 22.9 75.1 25.4 3 .3 5.7.8 6 1 2.9 1.6 40.2 2.5 54.9 1.2 29.6-2.5 62.1-12 88.6-26l9.3-4.8 8.7 4.5c22.8 12 55 22.3 78.4 25 3 .4 8.7 1 12.5 1.5 7.1.8 42.3.5 46.1-.3 1.2-.3 4.5-.8 7.5-1.2 17.3-2 41.1-8.4 59.4-16 8.2-3.4 24.9-11.8 27.4-13.8 1-.9 1.2-3.8.7-13.7-.3-6.9-.8-14.1-1.1-16-.3-1.9-1-6.7-1.6-10.5-3.2-20.8-10.8-44.4-21.5-66.1-19.1-39.2-47.3-71.5-83.7-95.7-5.3-3.6-10.1-6.7-10.6-6.9-.5-.2-1.2-5.3-1.5-11.3-.7-14-1.4-20.7-2.7-27.1-.5-2.8-1.2-6.2-1.4-7.7-.3-1.5-.7-3.7-.9-5-2-11.3-9.1-32.2-16.3-48.3-18.6-41.5-51.8-80.2-88.5-103.1-10-6.3-10.8-6.5-13.3-5.1zm13.7 13.6c40 26.5 72.4 68.5 89.3 115.7 3.8 10.7 8.1 25.8 9.1 32 .3 2.2.7 4.2.9 4.5.2.3.7 3.3 1 6.5.4 3.3.9 6.3 1.1 6.6.5.9 1.7 23.9 1.2 23.9-.3 0-6.1-2.7-12.9-5.9-25.2-12.1-53.3-19.6-81.9-21.8-41.3-3.3-83.5 4.4-119.6 21.6-7 3.4-12.9 6.1-13.2 6.1-1.1 0 1.1-23.3 3.3-35.5 3.4-18.5 6.8-30.6 12.7-45.5 3.8-9.7 14.5-31 19.1-38 4.7-7.2 12.9-19 14.2-20.4.6-.6 2.8-3.4 4.9-6.1 6.3-8 26.4-27.6 35.1-34.2C334.4 91.6 348.8 82 350 82c.5 0 5.5 3.1 11.2 6.8zM382 258.3c26.9 4 51.7 11.8 73.5 23.2l8 4.2v10.4c-.1 10.8-1 20.5-2.5 27.4-.5 2.2-1.2 5.6-1.5 7.5-5.6 32.3-26.4 74.7-50.8 103.5-15.8 18.6-36.9 36.8-55 47.3l-3.8 2.2-6.7-4.2c-12.5-7.8-25.6-18.3-37.2-29.8-12.9-12.8-15.4-15.6-25-28.5-18.9-25.4-35.7-62.8-40.4-90-.3-1.7-1-5.3-1.5-8.2-1.8-9.2-2.5-17.5-2.6-27.8v-9.9l9.5-4.8c15-7.5 38-16 49.4-18.2 1.1-.2 4.2-.9 6.9-1.5 2.6-.6 6.4-1.4 8.5-1.7 2-.3 4.8-.7 6.2-1 1.4-.2 5.7-.7 9.5-1 3.9-.4 7.1-.8 7.3-.9 1.1-.9 39.4.5 48.2 1.8zm-152.4 34.9c-.1 7.1 1.5 22.9 3.4 33.3 11.3 62.3 49 120.2 100.5 154.7 5 3.3 9.2 6.2 9.4 6.4.8.8-26.8 13.2-36.9 16.7-13.3 4.5-21 6.4-37 9.3-22.1 3.9-54.8 4.1-77.5.3-22.9-3.7-44.4-10.8-66.3-21.7l-9.3-4.6.2-8c.2-10.7 2.2-26.2 5.3-40.1 1.9-8.8 7.3-26.6 9.6-32 .5-1.1 2.3-5.4 4.1-9.5 17.2-40.3 48.8-78.1 85.3-102.2 4.8-3.2 8.9-5.8 9-5.8.1 0 .2 1.5.2 3.2zm267.7 15.5c49.8 39.8 83.1 104.1 86.3 166.8l.7 12.1-10.4 5.1c-25.2 12.5-50.9 20-78.4 23-13.3 1.5-48.5.8-58-1-1.1-.3-4.2-.8-7-1.1-8.2-1.2-24.3-5.3-36-9.1-10.2-3.4-37.5-15.7-37.5-16.9 0-.3 1.5-1.3 3.3-2.2 1.7-.9 3.4-2 3.7-2.3.3-.3 2.4-1.8 4.7-3.3 11.1-7.3 34.7-28.7 45.8-41.8 18.7-22 34.9-51.2 44.5-80 6.5-19.6 9.6-36.1 11.5-61.5.2-2.2.3-4.6.4-5.3.1-1.5 14.8 8.2 26.4 17.5z"/><path d="M338.1 288.5c-4.6 5.3-7.3 11.3-7.6 16.9-.6 10 3.8 16 19 26.2s18.9 13.5 22.2 20.1c2.2 4.6 2.7 7 2.7 12.8 0 6.1-.5 7.9-3.2 12.7-3.8 6.5-6.2 9-6.2 6.3 0-3-3.7-8-7.7-10.2-5-2.8-11-4.1-21.5-4.8-16.3-1-25.5-2.7-31.9-6.1-4.8-2.5-10.8-9.5-13-15.3-1.8-4.7-2-6.9-1.5-14.1.3-4.7.8-9.7 1.2-11.3.8-3.5-.5-3.4-4.4.3-5.3 5-6.6 8.6-6.7 18 0 6.9.4 9.4 2.3 13.2 4.5 9.1 14.3 16.1 26.9 19.2 8.2 2.1 12.5 2.5 25.9 2.6 18.6.2 24.5 2.7 27.9 11.6l1.8 4.7 13.3-13.7c16.9-17.4 20-22.8 19.5-33.6s-12.2-23.5-27.1-29.7c-8.3-3.4-8.9-2.8-1.9 2.3 18.8 13.6 24.5 23.9 20.4 36.6-1 2.9-2.7 6.6-3.9 8.3l-2.1 3-.7-5.3c-1.4-9.5-7.3-18.5-16.5-25.3-5.1-3.8-5.3-4.1-3.8-6.2 2.8-3.9 1.9-8.5-2.4-12.8-4.6-4.7-6.5-5.1-5-1.2 1.2 3.1-.3 7.8-2.8 8.8-2.2.8-5.9-1.9-8-5.8-2.3-4.2-2.3-15.7 0-21.2l1.7-4-2 2.3c-1.1 1.3-2.5 4.3-3.1 6.5-2.5 9.1-2.7 9.5-2.8 4.6-.1-5 2.2-14 4.6-17.6 2.4-3.6-.1-2.7-3.6 1.2z"/><path d="M300.5 293.4c-4.1 6.2-4 13.9.3 22.8 1.6 3.5 4.8 8.2 7.1 10.5 2.3 2.4 3.9 4.3 3.6 4.3-1.8 0-5.5-2.9-10.2-7.9-5.8-6.1-6.6-6.1-2.8-.1 5.3 8.4 17.4 15.4 28.3 16.2 2.9.3 5.2.3 5.2.2 0-.2-2.6-2.2-5.7-4.5-8.5-6.1-17-15.5-20.6-22.9-2.7-5.4-3.2-7.5-3.2-13.7 0-4-.1-7.3-.2-7.3-.2 0-1 1.1-1.8 2.4zM363 373c.6 1.1 1.5 2 2 2 1.6 0 1.1-2.7-.6-3.4-2.4-.9-2.6-.8-1.4 1.4zM340.8 379.5c-.2.1-3 .5-6.3.8-3.3.3-14.3 2.4-24.5 4.6-10.2 2.2-21.1 4.3-24.2 4.6-3.4.4-5.9 1.3-6.2 2.1-.3.8 0 1.4.7 1.5 5 .3 80.9 0 81.3-.3.9-1-5.3-7.8-9-9.9-3.4-1.9-11-4.1-11.8-3.4zM380.5 382.7c-2.4.5-10.3 7.2-10.7 9.1-.2 1.1 4.8 1.4 26.7 1.3h28.8c3.4-.2 1.6-1.9-2.5-2.6-2.4-.3-10.4-2.2-17.8-4-13.6-3.4-20.8-4.5-24.5-3.8zM273.9 396.2c-.5 1.8-.6 3.8-.1 3.4.7-.8 1.2-3.6.6-3.6-.2 0-.4.1-.5.2zM278.6 397c-1.1 2.4.3 3.3 4.9 3.3 4.2 0 5-.3 5.3-1.9.2-1.7-.4-1.9-4.9-1.9-2.8 0-5.2.2-5.3.5zM290.9 398.8c-.5 1.3-.9 2.6-.9 3 0 .4-1.1 1.9-2.5 3.4s-2.5 3-2.5 3.3c0 .3 1.6.5 3.6.5 3.4 0 3.5.1 2.9 3-.4 1.6-.4 3-.1 3 1.8 0 5.8-2.7 7.3-4.9 1.8-2.8 4.5-13 3.5-13.2-.4-.1-2.9-.2-5.6-.3-4.2-.1-4.9.1-5.7 2.2zm6.3 1.4c.3.7.1 1.7-.4 2.3-.5.5-1.4 1.8-2.1 2.8-1.1 1.5-1.2 1.4-1.1-1.1.1-4.4 2.6-7.1 3.6-4zM304.8 397.1c-.6.4-.9 1.3-.6 2 .4 1.1 6 1.4 28.9 1.3 27.4 0 28.4-.1 28.7-2 .3-1.9-.5-1.9-27.9-1.9-15.4 0-28.6.3-29.1.6zM366.7 397.2c-.9.5-.9 1 0 1.9 1.8 1.8 58 1.9 59.5.1.6-.7.8-1.6.4-1.9-.9-1-58.5-1-59.9-.1z"/></svg>